<?xml version="1.0" encoding="utf-8" ?>
<svg baseProfile="full" height="1080" version="1.1" width="1080" xmlns="http://www.w3.org/2000/svg" xmlns:ev="http://www.w3.org/2001/xml-events" xmlns:xlink="http://www.w3.org/1999/xlink"><defs /><circle cx="540" cy="540" fill="none" r="200" stroke="mediumseagreen" stroke-width="30" /><polyline fill="none" points="340.0,582.696437994179 342.0100502512563,583.4292496387868 344.02010050251255,584.4443925334906 346.03015075376885,585.7066014705741 348.0402010050251,587.1699374023793 350.0502512562814,588.7794079284346 352.0603015075377,590.4729810855705 354.070351758794,592.18392053266 356.08040201005025,593.8433561688076 358.0904522613065,595.3829932741658 360.1005025125628,596.7378558992111 362.1105527638191,597.8489568036298 364.1206030150754,598.665786965629 366.13065326633165,599.1485225952504 368.14070351758795,599.2698565783127 370.1507537688442,599.0163740783307 372.1608040201005,598.3894082074455 374.1708542713568,597.4053306811163 376.18090452261305,596.0952535131383 378.19095477386935,594.504140310763 380.2010050251256,592.689348750981 382.2110552763819,590.7186484796711 384.2211055276382,588.6677800942265 386.2311557788945,586.6176401976819 388.24120603015075,584.6511939628334 390.251256281407,582.8502295284019 392.2613065326633,581.2920772993742 394.2713567839196,580.0464214209029 396.2814070351759,579.1723300859038 398.29145728643215,578.7156258454164 400.30150753768845,578.7067068268133 402.3115577889447,579.1589150204753 404.321608040201,580.0675290385842 406.3316582914573,581.409436609321 408.34170854271355,583.1435173152736 410.35175879396985,585.2117395991961 412.3618090452261,587.5409488088893 414.3718592964824,590.0452960489866 416.3819095477387,592.6292318744493 418.391959798995,595.1909653945436 420.40201005025125,597.6262690874865 422.4120603015075,599.8324933839764 424.4221105527638,601.7126435575169 426.4321608040201,603.179365193539 428.4422110552764,604.158683845478 430.45226130653265,604.5933495706778 432.46231155778895,604.4456478085258 434.4723618090452,603.6995542423664 436.4824120603015,602.3621323951746 438.4924623115578,600.4640980754874 440.50251256281405,598.0595035739005 442.51256281407035,595.224525729188 444.5226130653266,592.0553745464327 446.5326633165829,588.6653717971687 448.5427135678392,585.1812807744155 450.5527638190955,581.7389979387467 452.56281407035175,578.4787434574523 454.572864321608,575.539909588383 456.5829145728643,573.0557426114268 458.5929648241206,571.1480448533883 460.6030150753769,569.9220877757314 462.61306532663315,569.4619248100361 464.62311557788945,569.8262835791386 466.6331658291457,571.0452015196614 468.643216080402,573.1175471486376 470.6532663316583,576.0095419439906 472.66331658291455,579.6543658927594 474.67336683417085,583.9528942378641 476.6834170854271,588.7755750038917 478.6934673366834,593.9654177893369 480.7035175879397,599.3420254217084 482.713567839196,604.7065627412107 484.72361809045225,609.8475223323007 486.7336683417085,614.5471167027655 488.7437185929648,618.5881013333446 490.7537688442211,621.7608141364392 492.7638190954774,623.8702049169358 494.77386934673365,624.7426239374842 496.78391959798995,624.2321419190155 498.7939698492462,622.2261847556522 500.8040201005025,618.6502846258171 502.8140703517588,613.4717745128646 504.82412060301505,606.7022846393315 506.83417085427135,598.398935979652 508.8442211055276,588.6641666701511 510.8542713567839,577.6441704573347 512.8643216080402,565.5259708871887 514.8743718592965,552.5331992555296 516.8844221105528,538.9206869241407 518.894472361809,524.968022018155 520.9045226130653,510.97225541234184 522.9145728643216,497.23997008683153 524.9246231155779,484.0789503712947 526.9346733668342,471.78970250732266 528.9447236180904,460.6570847983486 530.9547738693467,450.9423041112572 532.964824120603,442.8755256505266 534.9748743718593,436.6493250320552 536.9849246231156,432.41318629967657 538.9949748743718,430.26921746654614 541.0050251256281,430.26921746654614 543.0150753768844,432.41318629967645 545.0251256281407,436.6493250320551 547.035175879397,442.87552565052647 549.0452261306532,450.9423041112571 551.0552763819095,460.6570847983485 553.0653266331658,471.7897025073223 555.0753768844221,484.0789503712945 557.0854271356784,497.23997008683136 559.0954773869346,510.97225541234144 561.105527638191,524.9680220181548 563.1155778894472,538.9206869241406 565.1256281407035,552.5331992555293 567.1356783919598,565.5259708871885 569.145728643216,577.6441704573343 571.1557788944724,588.664166670151 573.1658291457286,598.3989359796519 575.1758793969849,606.7022846393314 577.1859296482412,613.4717745128645 579.1959798994975,618.6502846258171 581.2060301507538,622.2261847556521 583.21608040201,624.2321419190155 585.2261306532663,624.7426239374842 587.2361809045226,623.8702049169358 589.2462311557789,621.7608141364392 591.2562814070352,618.5881013333448 593.2663316582914,614.5471167027655 595.2763819095477,609.8475223323007 597.286432160804,604.7065627412109 599.2964824120603,599.3420254217084 601.3065326633166,593.9654177893372 603.3165829145728,588.7755750038918 605.3266331658291,583.9528942378643 607.3366834170854,579.6543658927595 609.3467336683417,576.0095419439906 611.356783919598,573.1175471486376 613.3668341708542,571.0452015196614 615.3768844221106,569.8262835791386 617.3869346733668,569.4619248100361 619.3969849246231,569.9220877757314 621.4070351758794,571.1480448533883 623.4170854271356,573.0557426114268 625.427135678392,575.5399095883829 627.4371859296482,578.4787434574523 629.4472361809045,581.7389979387467 631.4572864321608,585.1812807744155 633.467336683417,588.6653717971686 635.4773869346734,592.0553745464327 637.4874371859296,595.2245257291879 639.4974874371859,598.0595035739004 641.5075376884422,600.4640980754874 643.5175879396984,602.3621323951745 645.5276381909548,603.6995542423664 647.537688442211,604.4456478085258 649.5477386934673,604.5933495706778 651.5577889447236,604.158683845478 653.5678391959799,603.179365193539 655.5778894472362,601.712643557517 657.5879396984924,599.8324933839764 659.5979899497487,597.6262690874867 661.608040201005,595.1909653945436 663.6180904522613,592.6292318744494 665.6281407035176,590.0452960489866 667.6381909547738,587.5409488088893 669.6482412060301,585.2117395991961 671.6582914572864,583.1435173152737 673.6683417085427,581.4094366093211 675.678391959799,580.0675290385842 677.6884422110552,579.1589150204753 679.6984924623116,578.7067068268133 681.7085427135678,578.7156258454164 683.7185929648241,579.1723300859038 685.7286432160804,580.0464214209029 687.7386934673366,581.2920772993742 689.748743718593,582.8502295284019 691.7587939698492,584.6511939628334 693.7688442211055,586.6176401976819 695.7788944723618,588.6677800942265 697.788944723618,590.718648479671 699.7989949748744,592.689348750981 701.8090452261306,594.5041403107629 703.8190954773869,596.0952535131382 705.8291457286432,597.4053306811163 707.8391959798994,598.3894082074455 709.8492462311558,599.0163740783307 711.859296482412,599.2698565783127 713.8693467336683,599.1485225952504 715.8793969849246,598.665786965629 717.8894472361809,597.8489568036298 719.8994974874372,596.7378558992111 721.9095477386934,595.3829932741658 723.9195979899497,593.8433561688076 725.929648241206,592.18392053266 727.9396984924623,590.4729810855705 729.9497487437186,588.7794079284346 731.9597989949748,587.1699374023793 733.9698492462311,585.7066014705741 735.9798994974874,584.4443925334907 737.9899497487437,583.4292496387868 740.0,582.696437994179" stroke="mediumseagreen" stroke-linejoin="round" stroke-width="20" /></svg>